<?xml version="1.0" encoding="utf-8"?>
<!-- Uploaded to: SVG Repo, www.svgrepo.com, Generator: SVG Repo Mixer Tools -->
<svg fill="#000000" width="800px" height="800px" viewBox="0 0 32 32" version="1.1" xmlns="http://www.w3.org/2000/svg">
<title>aries</title>
<path d="M21.561 3.28c-2.684 1.293-4.477 4.116-5.663 7.535-1.186-3.418-2.979-6.242-5.663-7.535-8.595-4.14-11.887 7.734-5.522 12.778h5.281c0 0-1.565-2.74-1.748-3.128-0.281-0.593-1.933-4.882 0.404-3.372 3.163 2.043 3.885 9.337 4.23 12.546 0.347 3.23 0.549 7.495 0.549 7.495h4.936c0 0 0.202-4.265 0.549-7.495 0.345-3.209 1.067-10.503 4.23-12.546 2.338-1.51 0.685 2.78 0.405 3.372-0.183 0.388-1.748 3.128-1.748 3.128h5.281c6.365-5.044 3.073-16.918-5.522-12.778z"></path>
</svg>