<?xml version="1.0" encoding="utf-8"?>
<!-- Uploaded to: SVG Repo, www.svgrepo.com, Generator: SVG Repo Mixer Tools -->
<svg fill="#000000" width="800px" height="800px" viewBox="0 0 32 32" version="1.1" xmlns="http://www.w3.org/2000/svg">
<title>cancer</title>
<path d="M2.194 9.079c2.547-4.195 8.742-7.166 15.608-7.166 4.566 0 8.659 1.071 12.382 3.75l0.029 6.040c-5.049-3.851-11.348-5.658-17.402-3.351 1.113 1.212 1.794 2.83 1.794 4.607 0 3.762-3.049 6.812-6.811 6.812s-6.811-3.050-6.811-6.812c-0-1.44 0.447-2.778 1.211-3.879v0zM7.775 14.281c0.773 0 1.401-0.627 1.401-1.401s-0.627-1.401-1.401-1.401-1.401 0.627-1.401 1.401 0.628 1.401 1.401 1.401zM24.055 17.263c-0.774 0-1.401 0.627-1.401 1.401s0.627 1.401 1.401 1.401 1.401-0.627 1.401-1.401-0.627-1.401-1.401-1.401zM29.636 22.466c-2.547 4.195-8.742 7.166-15.607 7.166-4.567 0-8.659-1.071-12.382-3.75l-0.029-6.039c5.049 3.85 11.348 5.657 17.402 3.352-1.114-1.212-1.794-2.83-1.794-4.607 0-3.762 3.049-6.811 6.811-6.811s6.812 3.049 6.812 6.811c0 1.44-0.447 2.778-1.212 3.879v0z"></path>
</svg>