<?xml version="1.0" encoding="utf-8"?>
<!-- Uploaded to: SVG Repo, www.svgrepo.com, Generator: SVG Repo Mixer Tools -->
<svg fill="#000000" width="800px" height="800px" viewBox="0 0 32 32" version="1.1" xmlns="http://www.w3.org/2000/svg">
<title>capricorn</title>
<path d="M13.898 7.834c-1.010-0.167-1.41 4.941-1.557 7.381l-4.225 0.006c-0.18-6.466-0.266-7.103-1.246-8.824-0.448-0.787-1.769-0.904-1.769-0.904 0-0.839-0.008-4.27-0.008-4.27 2.327 0 3.94 1.68 4.956 3.528l0.151-0.34c0.494-1.057 1.674-3.119 3.999-3.119 7.332 0 2.667 20.162 9.077 18.5 0.414-0.107 1.066-1.451-0.246-1.451-2.371 0.315-3.254 13.143-10.941 12.105-0.736-0.099-1.18-0.301-1.18-0.301l0.531-4.565c1.412 0.176 3.375-0.944 3.628-1.661 1.070-3.033 2.799-10.486 8.353-10.486 2.122 0 4.54 2.054 4.54 5.661 0 5.892-10.582 9.615-12.989-3.082-0.514-2.706-0.269-8.379-1.074-8.177v0z"></path>
</svg>