<?xml version="1.0" encoding="utf-8"?>
<!-- Uploaded to: SVG Repo, www.svgrepo.com, Generator: SVG Repo Mixer Tools -->
<svg fill="#000000" width="800px" height="800px" viewBox="0 0 32 32" version="1.1" xmlns="http://www.w3.org/2000/svg">
<title>leo</title>
<path d="M10.534 19.088c0.778 0 1.408-0.63 1.408-1.408s-0.631-1.408-1.408-1.408c-0.778 0-1.408 0.63-1.408 1.408s0.63 1.408 1.408 1.408v0zM3.735 17.689c0-3.704 2.984-6.711 6.679-6.749-0.073-0.552-0.107-1.124-0.090-1.724 0.336-11.754 18.602-9.319 15.841 1.96-1.023 4.177-2.806 8.147-4.454 11.771-1.54 3.389 0.852 3.139 1.076 2.047l5.216 0.114c-0.19 8.692-16.137 6.891-11.042-4.319 1.671-3.676 3.055-7.273 4.136-10.853 1.236-4.096-8.159-5.63-4.772 3.104 0.486 1.253 0.907 2.792 0.9 4.308l0.008 0.341c0 3.727-3.022 6.749-6.749 6.749s-6.749-3.021-6.749-6.749z"></path>
</svg>