<?xml version="1.0" encoding="utf-8"?>
<!-- Uploaded to: SVG Repo, www.svgrepo.com, Generator: SVG Repo Mixer Tools -->
<svg fill="#000000" width="800px" height="800px" viewBox="0 0 32 32" version="1.1" xmlns="http://www.w3.org/2000/svg">
<title>pisces</title>
<path d="M17.535 13.806c0.431-4.96 2.499-9.276 5.487-12.014h5.475c-2.987 2.738-4.708 7.053-5.059 12.014h4.41v4.958h-4.309c0.523 4.567 2.253 8.503 5.085 11.034h-5.475c-2.832-2.531-4.861-6.468-5.491-11.034h-3.612c-0.63 4.567-2.659 8.503-5.491 11.034h-5.475c2.832-2.531 4.561-6.468 5.085-11.034h-4.667v-4.958h4.768c-0.352-4.96-2.072-9.276-5.059-12.014h5.476c2.987 2.738 5.056 7.053 5.486 12.014h3.366z"></path>
</svg>