<?xml version="1.0" encoding="utf-8"?>
<!-- Uploaded to: SVG Repo, www.svgrepo.com, Generator: SVG Repo Mixer Tools -->
<svg fill="#000000" width="800px" height="800px" viewBox="0 0 32 32" version="1.1" xmlns="http://www.w3.org/2000/svg">
<title>scorpio</title>
<path d="M23.235 29.122c-0.831 0-1.561-0.087-2.204-0.249-0.883-0.313-1.662-0.684-2.613-1.991-0.090-0.123-0.175-0.252-0.255-0.383l-0.054-0.090c-0.882-1.518-1.084-3.519-1.186-5.39l-0.013-0.496v-14.39c0-0.463-0.059-0.941-0.26-1.371-0.156-0.262-0.361-0.282-0.521-0.202-0.206 0.103-0.462 0.426-0.503 1.073 0.059 4.536-0.099 10.983-0.165 15.387h-4.861v-14.886c0-0.463-0.059-0.941-0.26-1.371-0.161-0.271-0.377-0.287-0.549-0.187-0.221 0.128-0.481 0.506-0.481 1.236 0.038 4.948-0.094 10.284-0.167 15.209h-4.861v-14.886c0-1.334-0.552-2.479-2.27-2.486l-0.525-0.002c1.087-1.238 2.168-1.77 3.916-1.77 1.126 0 2.179 0.446 2.906 1.205l0.118-0.107 0.138-0.119c1.046-0.807 2.246-0.979 3.155-0.979 1.124 0 2.175 0.445 2.903 1.202l0.114-0.103 0.138-0.119c1.047-0.807 2.246-0.979 3.156-0.979 2.061 0 3.864 1.492 3.903 3.645 0.010 0.552 0.016 1.188 0.017 1.883 0 3.909-0.174 14.831-0.045 15.612l0.063 0.346c0.032 0.161 0.067 0.314 0.104 0.461 0.61 2.353 1.492 2.893 3.093 2.858 0.715-0.064 1.352-0.33 1.847-0.612l-1.030-1.854 4.545 0.148-1.811 4.84c-0.014-0.054-0.388-0.745-0.856-1.597-0.423 0.554-1.593 1.516-4.627 1.516v0z"></path>
</svg>