<?xml version="1.0" encoding="utf-8"?>
<!-- Uploaded to: SVG Repo, www.svgrepo.com, Generator: SVG Repo Mixer Tools -->
<svg fill="#000000" width="800px" height="800px" viewBox="0 0 32 32" version="1.1" xmlns="http://www.w3.org/2000/svg">
<title>virgo</title>
<path d="M10.989 5.952c0-0.482-0.061-0.979-0.271-1.427-0.168-0.282-0.392-0.298-0.571-0.195-0.23 0.133-0.5 0.527-0.5 1.286 0.039 5.149-0.098 10.701-0.174 15.826h-5.058v-15.49c0-1.388-0.575-2.58-2.362-2.587l-0.546-0.002c1.131-1.288 2.256-1.842 4.075-1.842 1.172 0 2.267 0.464 3.024 1.254l0.123-0.111 0.144-0.124c1.089-0.84 2.337-1.019 3.283-1.019 1.17 0 2.263 0.463 3.020 1.251l0.118-0.107 0.144-0.124c1.089-0.84 2.337-1.019 3.284-1.019 2.145 0 4.021 1.553 4.062 3.793 0.023 1.244 0.021 2.897 0.006 4.698 0.495-1.4 1.461-3.175 3.185-3.175 1.423 0 4.269 0.071 4.269 8.752 0 6.296-3.272 9.892-5.536 11.652 0.292 0.113 0.599 0.159 0.911 0.159 1.566 0 2.846-1.281 2.846-1.281v1.779c0 0-0.534 1.743-4.447 1.743-1.166 0-2.117-0.188-2.893-0.52-2.411 0.769-5.324 1.196-5.324 1.196v-1.921c0 0 1.497-0.075 3.326-0.855-1.192-1.621-1.439-3.944-1.556-6.1l-0.014-0.516v-14.974c0-0.482-0.061-0.979-0.271-1.427-0.162-0.273-0.376-0.293-0.543-0.21-0.214 0.106-0.48 0.443-0.523 1.117 0.061 4.72-0.103 11.429-0.172 16.011h-5.058v-15.491l-0-0zM22.725 14.967l-0.002 0.128-0.009 0.528c-0.038 2.289-0.079 4.398-0.1 5.82 0 1.402 0.123 2.494 0.338 3.337 1.552-1.805 2.739-4.507 2.739-8.549 0-11.49-2.877-4.073-2.965-1.264z"></path>
</svg>